<?xml version="1.0" standalone="no"?>
<!DOCTYPE svg PUBLIC "-//W3C//DTD SVG 20010904//EN"
 "http://www.w3.org/TR/2001/REC-SVG-20010904/DTD/svg10.dtd">
<svg version="1.0" xmlns="http://www.w3.org/2000/svg"
 width="1024.000000pt" height="1024.000000pt" viewBox="0 0 1024.000000 1024.000000"
 preserveAspectRatio="xMidYMid meet">

<g transform="translate(0.000000,1024.000000) scale(0.100000,-0.100000)"
fill="#000000" stroke="none">
<path d="M0 5120 l0 -5120 5120 0 5120 0 0 5120 0 5120 -5120 0 -5120 0 0
-5120z m5475 3529 c238 -24 529 -96 761 -189 243 -97 529 -262 732 -423 l63
-50 169 169 c104 103 173 164 179 159 11 -13 178 -291 183 -307 2 -6 48 19
109 59 97 66 209 133 221 133 2 0 -3 -44 -13 -97 -9 -54 -20 -123 -24 -153 -3
-30 -12 -93 -20 -140 -8 -47 -15 -105 -17 -130 l-3 -45 190 -100 c105 -55 198
-105 207 -110 14 -9 -19 -44 -212 -230 -126 -121 -230 -225 -230 -231 0 -7 14
-45 31 -85 83 -193 163 -471 198 -684 30 -178 30 -178 42 -335 29 -378 -45
-871 -187 -1239 -54 -139 -148 -337 -196 -411 l-35 -55 72 -28 c240 -91 416
-289 502 -564 l28 -88 0 -530 c0 -517 -1 -532 -22 -618 -62 -240 -202 -449
-387 -576 -81 -56 -209 -111 -312 -134 l-99 -22 -2325 0 -2325 0 -88 22 c-348
89 -584 327 -684 688 l-28 100 0 530 c0 515 1 532 22 617 59 231 226 444 425
541 51 25 105 50 120 56 l27 10 -41 68 c-101 165 -210 437 -272 675 -81 308
-111 556 -103 838 6 194 8 220 28 355 6 39 13 84 15 100 37 254 141 564 289
862 191 384 424 688 716 933 473 396 1071 634 1684 670 161 9 464 4 610 -11z"/>
<path d="M4845 8530 c-481 -64 -708 -129 -1055 -305 -284 -145 -461 -274 -695
-509 -208 -210 -321 -364 -465 -639 -117 -223 -258 -587 -289 -748 -6 -30 -13
-65 -16 -79 -3 -14 -15 -86 -27 -160 -18 -112 -22 -178 -22 -385 0 -252 6
-323 46 -540 58 -320 201 -706 349 -938 l30 -49 994 4 c546 1 993 4 992 5 -1
1 -47 16 -102 33 -233 73 -491 231 -640 392 -115 123 -105 72 -105 551 0 327
-3 417 -12 417 -7 0 -97 -10 -200 -22 -103 -12 -191 -19 -195 -15 -4 4 -7 76
-7 160 1 174 19 280 85 482 100 303 243 531 472 752 276 265 582 400 1003 443
114 12 178 9 357 -16 368 -52 709 -233 955 -507 28 -32 52 -62 52 -67 0 -9
-277 -195 -357 -241 l-41 -23 -72 68 c-181 170 -394 262 -687 296 -241 28
-573 -69 -784 -229 -195 -149 -328 -341 -408 -594 -37 -117 -46 -189 -45 -367
0 -114 5 -150 27 -234 56 -204 139 -354 276 -498 209 -221 442 -336 749 -369
238 -26 527 46 742 185 83 54 233 195 297 281 76 100 151 258 183 384 29 115
31 129 37 231 6 107 -21 293 -59 412 l-21 67 25 33 c14 18 66 76 114 128 49
53 111 120 138 150 l48 55 18 -22 c46 -57 156 -347 191 -505 27 -117 34 -381
14 -508 -36 -233 -149 -500 -293 -690 -104 -137 -266 -294 -384 -371 -123 -80
-287 -159 -428 -206 l-115 -38 535 -3 536 -4 104 109 c216 223 336 416 446
720 42 116 57 175 88 343 56 306 40 590 -50 905 -41 142 -111 330 -171 454
-30 62 -53 115 -51 116 2 2 91 -11 198 -29 l195 -33 57 29 c32 15 61 28 66 28
13 0 116 -268 156 -410 46 -160 82 -357 97 -535 25 -302 -26 -707 -128 -1005
-74 -219 -175 -431 -279 -586 -35 -53 -64 -97 -64 -97 0 -1 50 -1 112 -1 111
1 112 2 135 30 39 49 189 361 237 496 114 318 169 628 170 958 1 263 -10 369
-60 605 -47 215 -141 490 -226 659 l-30 60 201 194 202 194 -65 38 c-35 21
-108 61 -161 90 -53 29 -99 58 -101 64 -5 14 43 323 53 339 11 18 -18 2 -96
-52 -41 -28 -79 -51 -85 -51 -12 1 -60 73 -139 210 -27 47 -50 86 -51 87 -2 2
-59 -49 -127 -113 -68 -64 -143 -132 -166 -151 l-43 -35 -63 58 c-133 125
-313 246 -542 365 -299 155 -551 232 -955 289 -102 14 -518 21 -605 10z m515
-184 c14 -2 48 -7 75 -11 523 -66 953 -251 1367 -587 42 -35 77 -68 78 -74 0
-5 -19 -24 -43 -40 l-42 -30 -28 -195 c-40 -282 -24 -264 -137 -156 -258 248
-489 393 -800 502 -456 158 -979 162 -1430 9 -129 -44 -335 -142 -455 -216
-181 -113 -386 -297 -526 -473 -219 -275 -385 -641 -458 -1015 -33 -168 -36
-203 -36 -427 l1 -213 -104 0 -104 0 -104 -97 c-58 -54 -109 -99 -113 -101
-11 -4 -28 88 -42 228 -13 125 -6 485 11 580 5 30 12 73 15 95 22 147 111 439
192 625 192 442 427 759 765 1032 190 154 505 330 746 418 113 40 346 102 432
114 25 3 72 11 105 16 33 6 98 13 145 16 47 4 87 9 90 12 6 5 361 -5 400 -12z
m2004 -473 c39 -78 78 -173 71 -173 -3 0 -13 10 -25 22 -24 26 -27 12 -4 -20
15 -21 14 -22 -15 -22 -17 0 -31 5 -31 10 0 6 -5 10 -11 10 -5 0 -7 -4 -4 -10
3 -5 -1 -10 -10 -10 -20 0 -81 -49 -77 -62 1 -5 -2 -7 -8 -3 -5 3 -10 1 -10
-5 0 -6 -4 -9 -9 -6 -5 4 -19 -6 -31 -21 -12 -16 -18 -22 -14 -14 5 9 -2 8
-19 -5 -15 -10 -27 -25 -27 -31 0 -7 -4 -12 -9 -10 -5 1 -8 -1 -7 -4 2 -11
-26 -39 -38 -38 -20 4 -46 -13 -47 -30 0 -9 -3 -11 -6 -4 -5 14 -14 8 -61 -37
-14 -14 -22 -19 -17 -11 15 25 -41 -22 -64 -54 -26 -37 -26 -32 -7 121 l14
111 53 50 c118 109 361 323 369 323 3 0 23 -35 44 -77z m87 -244 c-5 -13 -10
-19 -10 -12 -1 15 10 45 15 40 3 -2 0 -15 -5 -28z m-71 1 c0 -5 -4 -10 -10
-10 -5 0 -10 5 -10 10 0 6 5 10 10 10 6 0 10 -4 10 -10z m65 -75 c-29 -28 -40
-31 -51 -13 -5 7 -3 8 5 4 8 -5 22 4 39 24 14 17 28 27 30 20 2 -6 -8 -22 -23
-35z m-60 15 c-3 -5 -10 -10 -16 -10 -5 0 -9 5 -9 10 0 6 7 10 16 10 8 0 12
-4 9 -10z m333 -148 c56 -30 102 -57 102 -61 0 -8 -21 -28 -162 -158 -31 -28
-59 -49 -62 -45 -3 3 -6 -1 -6 -9 0 -8 -18 -32 -39 -53 -36 -35 -41 -37 -55
-23 -9 8 -25 13 -36 10 -14 -4 -20 0 -20 11 0 10 4 15 9 12 5 -3 11 1 15 9 7
20 -9 28 -32 16 -10 -6 -28 -9 -40 -8 -20 1 -20 2 -4 20 16 18 16 18 -11 6
-16 -7 -26 -18 -23 -25 6 -16 -27 -27 -55 -19 -14 5 -19 3 -15 -3 8 -14 -26
-24 -49 -16 -14 6 -16 4 -10 -6 6 -10 2 -11 -20 -6 -15 4 -42 2 -61 -4 -18 -6
-43 -10 -54 -8 -16 2 11 28 117 113 256 205 388 305 398 303 6 -2 56 -27 113
-56z m-855 -231 c2 -10 1 -25 -4 -32 -6 -10 -9 -4 -9 19 0 36 5 42 13 13z m37
-61 c0 -5 -2 -10 -4 -10 -3 0 -8 5 -11 10 -3 6 -1 10 4 10 6 0 11 -4 11 -10z
m-34 -25 c-8 -8 -17 -15 -20 -15 -3 0 -6 7 -6 15 0 9 9 15 21 15 18 0 19 -2 5
-15z m-3066 -92 c-85 -141 -216 -329 -226 -325 -16 6 -175 154 -190 178 -14
21 -13 26 12 66 16 24 30 45 31 47 2 3 29 -20 59 -50 38 -36 58 -50 61 -41 9
25 66 83 112 115 47 33 180 106 193 107 4 0 -19 -44 -52 -97z m3061 10 c-28
-28 -47 -55 -46 -66 2 -9 -1 -15 -6 -11 -5 3 -6 11 -2 17 4 7 -1 6 -11 -2 -9
-8 -21 -22 -27 -32 -8 -15 -6 -17 8 -12 10 3 -9 -23 -41 -58 -83 -90 -149
-154 -158 -154 -5 0 -7 -3 -5 -6 3 -9 -24 -39 -35 -39 -5 0 -6 5 -3 10 3 6 1
10 -5 10 -7 0 -9 -7 -6 -17 7 -18 -51 -86 -66 -77 -5 3 -7 1 -6 -3 2 -5 -76
-92 -173 -194 -240 -251 -244 -256 -228 -275 10 -13 7 -21 -23 -50 l-35 -35
-37 62 c-40 68 -62 139 -72 234 l-6 61 168 111 c252 166 732 493 788 536 69
52 85 46 27 -10z m622 5 c-9 -10 -26 -18 -37 -17 -12 0 -15 3 -8 6 10 4 9 8
-4 17 -12 9 -14 15 -6 20 7 4 12 2 12 -4 0 -7 8 -5 22 4 28 20 44 0 21 -26z
m-103 -92 c0 -3 -4 -8 -10 -11 -5 -3 -10 -1 -10 4 0 6 5 11 10 11 6 0 10 -2
10 -4z m-45 -44 c-3 -3 -11 0 -18 7 -9 10 -8 11 6 5 10 -3 15 -9 12 -12z
m-1480 -525 c8 -58 10 -69 31 -172 9 -44 30 -104 47 -133 l29 -53 -28 -30
c-15 -16 -31 -29 -35 -29 -10 0 -61 85 -87 146 -15 35 -24 88 -31 170 l-9 119
31 26 c37 31 41 27 52 -44z m-667 23 c121 -16 278 -77 339 -133 l23 -20 40 28
c22 15 42 26 44 24 1 -2 10 -49 20 -104 25 -152 33 -181 65 -232 l30 -48 -26
-27 c-34 -36 -96 -61 -265 -108 -79 -21 -190 -57 -248 -79 -57 -22 -105 -39
-107 -37 -4 4 167 149 210 178 28 19 48 46 77 108 52 107 94 163 137 186 33
18 34 21 28 59 -3 21 -8 41 -10 43 -7 7 -82 -47 -113 -82 -17 -20 -57 -80 -88
-133 -32 -54 -58 -100 -60 -102 -2 -2 -15 6 -30 18 -40 31 -128 54 -178 47
-86 -14 -160 -78 -191 -165 -19 -55 -19 -96 0 -152 43 -126 173 -194 297 -157
51 15 135 90 143 127 6 27 10 29 118 51 130 25 214 52 276 86 24 13 46 22 49
20 9 -9 -18 -165 -40 -231 -27 -85 -103 -202 -173 -269 -70 -67 -145 -111
-252 -149 -155 -54 -339 -39 -482 40 -184 100 -298 243 -347 433 -50 197 37
470 195 612 123 111 236 156 436 176 6 1 43 -3 83 -8z m561 -82 c6 -29 18 -91
26 -137 9 -55 28 -113 56 -172 l42 -89 -28 -30 -28 -29 -40 57 c-68 96 -84
144 -98 281 l-13 124 30 23 c16 13 32 24 35 24 3 0 11 -24 18 -52z m-2081
-924 c12 -4 22 -10 22 -15 0 -5 -25 -39 -56 -76 -107 -126 -183 -256 -279
-478 -26 -60 -52 -116 -57 -122 -6 -8 -33 -13 -64 -13 l-54 0 -75 101 c-41 55
-75 103 -75 107 0 4 23 27 50 50 58 50 58 50 111 -28 19 -27 36 -50 39 -50 3
0 11 21 18 46 30 113 161 339 253 439 39 42 45 45 93 45 28 0 61 -3 74 -6z
m-418 -128 c0 -3 -19 -34 -41 -70 l-41 -66 -130 0 -130 0 3 -295 4 -295 328 0
327 0 0 226 0 225 56 77 c31 42 61 81 65 86 5 6 9 -153 9 -367 l0 -377 -455 0
-455 0 0 430 0 430 230 0 c127 0 230 -2 230 -4z"/>
<path d="M7090 7499 c0 -5 5 -7 10 -4 6 3 10 8 10 11 0 2 -4 4 -10 4 -5 0 -10
-5 -10 -11z"/>
<path d="M7576 7253 c-6 -14 -5 -15 5 -6 7 7 10 15 7 18 -3 3 -9 -2 -12 -12z"/>
<path d="M7507 7209 c7 -7 15 -10 18 -7 3 3 -2 9 -12 12 -14 6 -15 5 -6 -5z"/>
<path d="M7420 7169 c-12 -9 -12 -10 4 -5 10 4 25 1 32 -5 9 -7 14 -8 14 -1 0
5 -7 13 -16 16 -19 7 -16 8 -34 -5z"/>
<path d="M7535 7110 c3 -5 8 -10 11 -10 2 0 4 5 4 10 0 6 -5 10 -11 10 -5 0
-7 -4 -4 -10z"/>
<path d="M6575 6780 c-3 -5 -1 -10 4 -10 6 0 11 5 11 10 0 6 -2 10 -4 10 -3 0
-8 -4 -11 -10z"/>
<path d="M6441 6667 c-8 -10 -7 -14 4 -14 8 0 15 6 15 14 0 7 -2 13 -4 13 -2
0 -9 -6 -15 -13z"/>
<path d="M6485 6630 c-3 -5 -1 -10 4 -10 6 0 11 5 11 10 0 6 -2 10 -4 10 -3 0
-8 -4 -11 -10z"/>
<path d="M2608 4021 c-227 -51 -396 -210 -480 -451 l-33 -95 -2 -500 c-2 -552
2 -600 58 -742 80 -203 203 -339 386 -425 156 -74 -37 -69 2578 -66 2211 3
2354 4 2410 21 243 71 429 258 522 522 l28 80 3 535 c4 588 2 603 -58 736 -69
153 -169 258 -313 329 -166 81 49 75 -2630 74 -2226 -1 -2397 -2 -2469 -18z
m2153 -315 c65 -14 181 -65 194 -86 3 -5 -33 -53 -81 -104 l-88 -95 -30 22
c-25 18 -45 22 -107 22 -68 0 -79 -3 -113 -29 -89 -68 -112 -212 -50 -312 43
-71 91 -96 176 -92 53 3 72 8 91 26 l24 23 59 -54 c32 -30 73 -66 89 -81 l30
-26 -56 -53 c-89 -85 -133 -102 -259 -102 -96 1 -110 3 -171 32 -77 36 -161
115 -200 188 -44 81 -62 177 -57 302 3 97 7 115 37 179 55 120 177 220 293
243 66 13 147 12 219 -3z m2771 -16 c32 -12 81 -39 110 -61 124 -93 181 -212
194 -404 17 -236 -90 -447 -270 -535 -54 -27 -81 -33 -154 -38 -139 -7 -242
29 -340 121 -102 98 -141 196 -149 382 -8 190 34 320 140 432 113 120 311 164
469 103z m-4675 4 c26 -9 73 -34 105 -56 l56 -40 -40 -86 c-22 -48 -44 -94
-49 -104 -8 -14 -15 -13 -65 14 -77 42 -181 51 -213 19 -45 -45 -16 -78 120
-136 118 -49 156 -73 198 -121 58 -65 74 -115 69 -209 -5 -104 -38 -175 -109
-239 -77 -69 -141 -89 -269 -83 -82 3 -121 10 -176 31 -68 26 -72 29 -78 64
-10 62 -7 84 21 169 l27 81 40 -27 c63 -42 95 -52 173 -58 91 -7 123 9 123 62
0 48 -25 70 -111 95 -119 36 -176 66 -229 120 -84 87 -101 196 -47 313 41 89
116 159 205 192 52 19 190 19 249 -1z m883 -109 l0 -125 -115 0 -115 0 -2
-387 -3 -387 -74 -17 c-41 -9 -92 -20 -113 -23 l-38 -6 0 410 0 410 -110 0
-110 0 0 125 0 125 340 0 340 0 0 -125z m348 -351 c2 -370 -1 -474 -10 -481
-7 -6 -53 -20 -103 -32 -49 -12 -96 -24 -102 -26 -10 -4 -13 102 -13 506 l0
510 113 -3 112 -3 3 -471z m1194 296 l3 -180 133 175 133 175 156 0 c148 0
155 -1 141 -17 -9 -10 -84 -103 -167 -207 l-151 -188 29 -37 c15 -20 88 -128
161 -241 74 -113 142 -216 152 -229 10 -13 17 -25 16 -27 -4 -3 -319 34 -323
38 -2 2 -22 37 -45 78 -24 41 -61 106 -82 144 l-40 68 -59 -63 -58 -64 -1 -87
0 -88 -120 0 -120 0 0 458 c0 252 3 462 7 465 3 4 57 7 119 7 l114 0 2 -180z
m1608 55 l0 -125 -113 0 -114 0 -6 -287 c-4 -157 -7 -342 -7 -410 0 -67 -3
-123 -7 -123 -5 0 -54 16 -110 37 l-103 37 0 373 0 372 -112 3 -113 3 -3 109
c-1 61 0 116 2 123 4 10 74 13 346 13 l340 0 0 -125z m-3710 -1069 l0 -34 -57
-6 c-113 -12 -669 -56 -710 -56 l-43 0 0 58 c0 32 3 62 7 65 3 4 186 7 405 7
l398 0 0 -34z m4630 -31 l0 -65 -42 0 c-24 0 -216 14 -428 30 -212 16 -393 30
-402 30 -14 0 -18 8 -18 35 l0 35 445 0 445 0 0 -65z m-4060 -109 l0 -45 -52
-3 -53 -3 -3 -137 -3 -138 -49 0 -50 0 0 140 0 140 -50 0 -50 0 0 45 0 45 155
0 155 0 0 -44z m200 -26 l0 -70 70 0 70 0 0 70 0 70 50 0 50 0 0 -187 0 -188
-50 3 -50 4 0 69 0 69 -70 0 -69 0 -3 -72 -3 -73 -45 0 -45 0 -3 188 -2 187
50 0 50 0 0 -70z m700 25 l0 -45 -105 0 c-105 0 -105 0 -105 -25 0 -23 3 -24
73 -27 l72 -3 3 -37 3 -37 -73 -3 -73 -3 0 -30 0 -30 103 -3 103 -3 -3 -42 -3
-42 -150 0 -150 0 -3 188 -2 187 155 0 155 0 0 -45z m585 29 c69 -33 85 -137
29 -195 -31 -33 -78 -49 -141 -49 l-43 0 0 -54 0 -54 -50 -4 -50 -3 0 188 0
187 111 0 c80 0 120 -4 144 -16z m275 -129 l0 -145 96 0 95 0 -3 -42 -3 -43
-142 -2 -143 -2 0 190 0 189 50 0 50 0 0 -145z m582 -35 c43 -96 78 -178 78
-182 0 -5 -25 -8 -55 -8 -50 0 -56 2 -65 25 -9 24 -13 25 -89 25 -77 0 -80 -1
-93 -27 -12 -25 -20 -28 -66 -31 -63 -4 -64 -1 -19 93 19 39 55 119 82 178
l48 108 51 -3 51 -3 77 -175z m354 83 l79 -98 3 98 3 97 49 0 50 0 0 -190 0
-190 -36 0 c-30 0 -43 8 -80 48 -24 26 -63 73 -86 104 -24 32 -46 57 -50 58
-5 0 -8 -45 -8 -100 l0 -100 -50 0 -50 0 0 185 0 185 49 0 49 0 78 -97z
m-3266 -208 l0 -25 -177 0 c-173 0 -262 11 -308 38 -16 9 36 11 233 12 l252 0
0 -25z m4256 13 c-50 -29 -126 -38 -318 -38 l-198 0 0 25 0 25 268 0 c198 -1
262 -3 248 -12z"/>
<path d="M7295 3441 c-82 -51 -120 -131 -119 -256 0 -79 3 -98 28 -148 15 -31
42 -68 59 -82 64 -48 166 -51 226 -7 14 10 39 43 56 73 37 69 47 197 21 276
-20 60 -72 124 -120 147 -46 22 -114 20 -151 -3z"/>
<path d="M5080 2290 l0 -50 43 0 c45 0 77 21 77 52 0 27 -35 48 -78 48 l-42 0
0 -50z"/>
<path d="M5954 2295 c-4 -11 -13 -35 -20 -54 -22 -54 -19 -61 31 -61 25 0 45
4 45 8 0 5 -11 35 -24 68 -20 48 -26 55 -32 39z"/>
</g>
</svg>
